<svg id="Outline_Version" data-name="Outline Version" xmlns="http://www.w3.org/2000/svg" viewBox="0 0 24 24"><title>developer-community-stack-overflow</title><path d="M2.85,13.71a.75.75,0,0,0-.75.75V21a2.75,2.75,0,0,0,2.75,2.75h11A2.75,2.75,0,0,0,18.6,21v-6.5a.75.75,0,0,0-1.5,0V21a1.25,1.25,0,0,1-1.25,1.25h-11A1.25,1.25,0,0,1,3.6,21v-6.5A.75.75,0,0,0,2.85,13.71Z"/><path d="M5.5,19a.75.75,0,0,0,.75.75h8a.75.75,0,1,0,0-1.5h-8A.75.75,0,0,0,5.5,19Z"/><path d="M6.07,14.46a.75.75,0,0,0,.58.89L14.48,17l.16,0a.75.75,0,0,0,.15-1.48L7,13.88A.74.74,0,0,0,6.07,14.46Z"/><path d="M7.57,10.17a.75.75,0,0,0,.38,1l7.31,3.25A.75.75,0,1,0,15.87,13L8.56,9.79A.75.75,0,0,0,7.57,10.17Z"/><path d="M9.93,6.29a.75.75,0,0,0,.17,1L16.57,12a.75.75,0,1,0,.88-1.21L11,6.12A.75.75,0,0,0,9.93,6.29Z"/><path d="M13,3A.75.75,0,0,0,13,4L18.34,10a.75.75,0,1,0,1.11-1L14.1,3A.75.75,0,0,0,13,3Z"/><path d="M21.16,8.71a.74.74,0,0,0,.38-.1.75.75,0,0,0,.27-1l-4-6.92a.75.75,0,0,0-1.3.75l4,6.92A.75.75,0,0,0,21.16,8.71Z"/></svg>