<?xml version="1.0" encoding="utf-8"?>
<!-- Generator: Adobe Illustrator 22.1.0, SVG Export Plug-In . SVG Version: 6.00 Build 0)  -->
<svg version="1.1" id="Layer_1" xmlns="http://www.w3.org/2000/svg" xmlns:xlink="http://www.w3.org/1999/xlink" x="0px" y="0px"
	 viewBox="0 0 24 24" style="enable-background:new 0 0 24 24;" xml:space="preserve">
<g>
	<title>layers-stacked-1</title>
	<path d="M12,11.955c-0.139,0-0.274-0.028-0.4-0.083L1.356,7.417C1.11,7.309,0.921,7.113,0.824,6.864
		C0.727,6.615,0.732,6.343,0.84,6.099c0.101-0.231,0.284-0.414,0.515-0.515l10.246-4.455c0.126-0.055,0.26-0.083,0.399-0.083
		c0.139,0,0.273,0.028,0.4,0.083l10.244,4.455c0.246,0.108,0.434,0.304,0.532,0.552c0.097,0.249,0.092,0.521-0.016,0.765
		c-0.101,0.231-0.284,0.414-0.515,0.515L12.4,11.872C12.273,11.927,12.139,11.955,12,11.955z M1.754,6.501l10.245,4.454L22.246,6.5
		L12,2.046L1.754,6.501z"/>
	<path d="M12,17.455c-0.139,0-0.274-0.028-0.4-0.083L1.356,12.917c-0.245-0.107-0.434-0.303-0.531-0.552
		c-0.097-0.249-0.092-0.521,0.015-0.765c0.101-0.231,0.284-0.414,0.515-0.515l1.821-0.792c0.063-0.028,0.13-0.042,0.199-0.042
		c0.199,0,0.379,0.118,0.459,0.3c0.11,0.253-0.006,0.548-0.259,0.658l-1.82,0.792l10.245,4.454L22.246,12l-1.821-0.791
		c-0.122-0.053-0.217-0.151-0.266-0.275c-0.049-0.124-0.046-0.26,0.007-0.383c0.079-0.182,0.259-0.301,0.458-0.301
		c0.069,0,0.136,0.014,0.2,0.042l1.82,0.792c0.506,0.222,0.737,0.813,0.516,1.318c-0.101,0.23-0.283,0.413-0.514,0.514
		l-10.247,4.456C12.273,17.427,12.139,17.455,12,17.455z"/>
	<path d="M12,22.955c-0.139,0-0.274-0.028-0.4-0.083L1.356,18.417c-0.245-0.107-0.434-0.303-0.531-0.552
		c-0.097-0.249-0.092-0.521,0.015-0.765c0.101-0.23,0.284-0.413,0.514-0.514l1.822-0.793c0.063-0.028,0.13-0.042,0.199-0.042
		c0.199,0,0.379,0.118,0.459,0.3c0.11,0.253-0.006,0.548-0.259,0.658l-1.82,0.792l10.245,4.454L22.246,17.5l-1.821-0.791
		c-0.253-0.11-0.369-0.406-0.259-0.658c0.08-0.182,0.26-0.301,0.458-0.301c0.069,0,0.136,0.014,0.2,0.042l1.82,0.792
		c0.506,0.222,0.737,0.813,0.516,1.318c-0.101,0.23-0.283,0.413-0.514,0.514l-10.247,4.456C12.273,22.927,12.139,22.955,12,22.955z"
		/>
</g>
</svg>
