<?xml version="1.0" encoding="utf-8"?>
<!-- Generator: Adobe Illustrator 22.1.0, SVG Export Plug-In . SVG Version: 6.00 Build 0)  -->
<svg version="1.1" id="Light" xmlns="http://www.w3.org/2000/svg" xmlns:xlink="http://www.w3.org/1999/xlink" x="0px" y="0px"
	 viewBox="0 0 24 24" style="enable-background:new 0 0 24 24;" xml:space="preserve">
<g>
	<title>outdoors-swiss-knife</title>
	<path d="M4,23.38c-2.206,0-4-1.794-4-4c0-0.919,0.32-1.815,0.902-2.527L9.925,1.12c0.106-0.185,0.265-0.328,0.459-0.415
		c0.13-0.058,0.266-0.087,0.407-0.087c0.394,0,0.753,0.232,0.914,0.592c1.398,3.13,1.218,6.775-0.48,9.752L8.707,15.38H18v-3.601
		c0-0.237,0.168-0.443,0.4-0.49c0.472-0.096,1.1-0.404,1.1-1.96c0-1.555-0.628-1.863-1.1-1.959C18.168,7.323,18,7.117,18,6.88
		c0-1.379,1.122-2.5,2.5-2.5S23,5.502,23,6.88v9.863c0.646,0.733,1,1.666,1,2.637c0,2.206-1.794,4-4,4H4z M4,16.38
		c-1.654,0-3,1.346-3,3s1.346,3,3,3h16c1.654,0,3-1.346,3-3s-1.346-3-3-3H4z M20,15.38c0.709,0,1.392,0.186,2,0.541V6.88
		c0-0.827-0.673-1.5-1.5-1.5c-0.7,0-1.296,0.479-1.457,1.142C20.01,6.91,20.5,7.854,20.5,9.329c0,1.499-0.504,2.448-1.5,2.825v3.226
		H20z M2.791,15.568C3.181,15.444,3.589,15.38,4,15.38h3.557l2.8-4.915c1.541-2.701,1.704-6.009,0.436-8.848L2.791,15.568z"/>
	<path d="M7.046,11.601c-0.087,0-0.172-0.023-0.248-0.066c-0.116-0.066-0.199-0.173-0.234-0.302
		c-0.035-0.129-0.018-0.264,0.048-0.38L9.356,6.04C9.444,5.884,9.61,5.787,9.79,5.787c0.087,0,0.173,0.023,0.248,0.066
		c0.115,0.066,0.198,0.173,0.234,0.302c0.035,0.129,0.018,0.264-0.048,0.38L7.48,11.349C7.392,11.505,7.225,11.601,7.046,11.601z"/>
	<path d="M5,21.38c-1.103,0-2-0.897-2-2s0.897-2,2-2s2,0.897,2,2S6.103,21.38,5,21.38z M5,18.38c-0.551,0-1,0.448-1,1s0.449,1,1,1
		s1-0.448,1-1S5.551,18.38,5,18.38z"/>
	<path d="M19,21.38c-1.103,0-2-0.897-2-2s0.897-2,2-2s2,0.897,2,2S20.103,21.38,19,21.38z M19,18.38c-0.552,0-1,0.448-1,1
		s0.448,1,1,1s1-0.448,1-1S19.552,18.38,19,18.38z"/>
</g>
</svg>
