<svg xmlns="http://www.w3.org/2000/svg" version="1.1" xmlns:xlink="http://www.w3.org/1999/xlink" xmlns:svgjs="http://svgjs.com/svgjs" viewBox="0 0 200 200" width="200" height="200"><g transform="matrix(8.333333333333334,0,0,8.333333333333334,0,0)"><path d="M1.5,8.267a1.5,1.5,0,0,0,0,3A11.1,11.1,0,0,1,12.938,22.259a1.5,1.5,0,0,0,3,0A14.069,14.069,0,0,0,1.5,8.267Z" fill="#ffffff" stroke="none" stroke-linecap="round" stroke-linejoin="round" stroke-width="0"></path><path d="M1.531.237a1.5,1.5,0,0,0,0,3C12.448,3.237,21,11.592,21,22.259a1.5,1.5,0,0,0,3,0C24,9.91,14.13.237,1.531.237Z" fill="#ffffff" stroke="none" stroke-linecap="round" stroke-linejoin="round" stroke-width="0"></path><path d="M0.000 20.248 A3.500 3.500 0 1 0 7.000 20.248 A3.500 3.500 0 1 0 0.000 20.248 Z" fill="#ffffff" stroke="none" stroke-linecap="round" stroke-linejoin="round" stroke-width="0"></path></g></svg>
