<?xml version="1.0" encoding="UTF-8" standalone="no"?>
<svg
   xmlns:dc="http://purl.org/dc/elements/1.1/"
   xmlns:cc="http://creativecommons.org/ns#"
   xmlns:rdf="http://www.w3.org/1999/02/22-rdf-syntax-ns#"
   xmlns:svg="http://www.w3.org/2000/svg"
   xmlns="http://www.w3.org/2000/svg"
   height="125.936"
   width="841.9165"
   xml:space="preserve"
   viewBox="0 0 841.91648 125.936"
   y="0px"
   x="0px"
   id="Ebene_1"
   version="1.1"><metadata
   id="metadata21"><rdf:RDF><cc:Work
       rdf:about=""><dc:format>image/svg+xml</dc:format><dc:type
         rdf:resource="http://purl.org/dc/dcmitype/StillImage" /><dc:title></dc:title></cc:Work></rdf:RDF></metadata><defs
   id="defs19" />
<style
   id="style2"
   type="text/css">
	.st0{fill:#FE9915;}
	.st1{fill:#0082A1;}
	.st2{fill:none;}
	.st3{font-family:'EtelkaText-Bold';}
	.st4{font-size:136px;}
	.st5{font-size:131px;}
</style>



<g
   id="text14"
   transform="translate(-11.152,99.824)"
   aria-label="Eclipse Scout"><path
     id="path1980"
     style="font-style:normal;font-variant:normal;font-weight:normal;font-stretch:normal;font-size:136px;font-family:'Etelka Text';-inkscape-font-specification:'Etelka Text';fill:#1482A1;fill-opacity:1"
     d="M 11.152,-94.792 V 0 h 70.72 V -19.176 H 33.048 V -39.848 H 68 V -58.616 H 33.048 v -17 h 48.824 v -19.176 z" /><path
     id="path1982"
     style="font-style:normal;font-variant:normal;font-weight:normal;font-stretch:normal;font-size:136px;font-family:'Etelka Text';-inkscape-font-specification:'Etelka Text';fill:#1482A1;fill-opacity:1"
     d="m 143.74562,-19.176 c -3.944,1.632 -9.792,3.128 -15.77599,3.128 -10.2,0 -15.368,-2.448 -15.368,-18.768 0,-17.136 5.168,-18.904 15.368,-18.904 5.71199,0 11.83199,1.36 15.77599,2.856 l 4.352,-17.68 c -5.44,-1.904 -14.688,-2.992 -21.89599,-2.992 -20.67201,0 -34.680005,8.024 -34.680005,36.312 0,28.56 13.872005,37.128 34.680005,37.128 6.936,0 16.31999,-1.224 21.89599,-3.536 z" /><path
     id="path1984"
     style="font-style:normal;font-variant:normal;font-weight:normal;font-stretch:normal;font-size:136px;font-family:'Etelka Text';-inkscape-font-specification:'Etelka Text';fill:#1482A1;fill-opacity:1"
     d="m 179.46688,-98.192 h -20.94401 v 78.472 c 0,10.064 2.312,17.68 6.8,23.12 l 18.768,-6.8 c -3.264,-5.032 -4.62399,-10.2 -4.62399,-16.864 z" /><path
     id="path1986"
     style="font-style:normal;font-variant:normal;font-weight:normal;font-stretch:normal;font-size:136px;font-family:'Etelka Text';-inkscape-font-specification:'Etelka Text';fill:#1482A1;fill-opacity:1"
     d="M 219.31063,-69.632 H 198.36662 V 0 h 20.94401 z m -10.47201,-30.192 c -8.976,0 -11.83199,1.36 -11.83199,9.928 0,9.384 2.85599,11.016 11.83199,11.016 8.84,0 11.832,-1.632 11.832,-11.016 0,-8.568 -2.992,-9.928 -11.832,-9.928 z" /><path
     id="path1988"
     style="font-style:normal;font-variant:normal;font-weight:normal;font-stretch:normal;font-size:136px;font-family:'Etelka Text';-inkscape-font-specification:'Etelka Text';fill:#1482A1;fill-opacity:1"
     d="m 273.05825,1.904 c 17.272,0 29.512,-8.568 29.512,-36.72 0,-28.424 -10.472,-36.72 -34.136,-36.72 -10.88,0 -24.072,2.04 -31.552,4.896 v 92.752 h 20.944 V -1.224 c 3.808,1.632 8.432,3.128 15.232,3.128 z m -4.624,-56.032 c 9.928,0 13.192,2.992 13.192,19.856 0,14.688 -3.128,19.04 -13.056,19.04 -6.12,0 -10.744,-2.176 -10.744,-5.304 v -31.96 c 2.448,-0.952 6.936,-1.632 10.608,-1.632 z" /><path
     id="path1990"
     style="font-style:normal;font-variant:normal;font-weight:normal;font-stretch:normal;font-size:136px;font-family:'Etelka Text';-inkscape-font-specification:'Etelka Text';fill:#1482A1;fill-opacity:1"
     d="m 364.54588,-52.224 4.07999,-15.504 c -6.528,-2.312 -16.31999,-3.808 -23.8,-3.808 -17.408,0 -30.872,4.896 -30.872,23.8 0,14.824 7.752,19.04 22.30401,20.4 11.56,1.088 13.87199,2.584 13.87199,6.392 0,5.44 -3.808,6.12 -11.968,6.12 -6.8,0 -14.552,-1.36 -19.72,-2.856 l -4.08,15.776 c 6.392,2.312 17.272,3.808 24.752,3.808 17.544,0 31.14401,-5.032 31.14401,-23.936 0,-14.28 -7.20801,-19.176 -23.392,-21.216 -10.74401,-1.36 -12.64801,-2.312 -12.64801,-5.984 0,-5.44 3.264,-5.984 9.79201,-5.984 7.07199,0 15.09599,1.496 20.536,2.992 z" /><path
     id="path1992"
     style="font-style:normal;font-variant:normal;font-weight:normal;font-stretch:normal;font-size:136px;font-family:'Etelka Text';-inkscape-font-specification:'Etelka Text';fill:#1482A1;fill-opacity:1"
     d="m 413.82887,-71.536 c -19.99199,0 -32.776,8.296 -32.776,36.312 0,28.56 14.552,37.128 34.136,37.128 7.888,0 18.224,-1.496 25.16001,-3.808 l -3.12801,-15.912 c -5.168,1.36 -14.28,2.312 -19.31199,2.312 -10.06401,0 -15.096,-2.04 -15.368,-13.192 h 43.11199 c 2.04001,-35.768 -8.704,-42.84 -31.824,-42.84 z m 0.952,15.776 c 8.16,0 10.744,2.04 11.016,11.696 h -23.12 c 1.224,-8.84 3.4,-11.696 12.104,-11.696 z" /><path
     id="path1994"
     style="font-style:normal;font-variant:normal;font-weight:normal;font-stretch:normal;font-size:136px;font-family:'Etelka Text';-inkscape-font-specification:'Etelka Text';fill:#1482A1;fill-opacity:1"
     d="m 532.8905,-97.104 c -28.152,0 -41.752,8.976 -41.752,32.504 0,17.544 9.52,24.208 29.784,26.384 17.816,1.904 20.4,4.76 20.4,10.744 0,7.208 -4.488,9.248 -18.632,9.248 -10.336,0 -19.856,-1.496 -25.976,-3.128 l -4.488,18.768 c 7.616,2.72 19.312,4.488 30.736,4.488 29.512,0 42.024,-7.48 42.024,-30.872 0,-18.088 -9.656,-26.384 -31.28,-28.832 -16.456,-1.768 -19.176,-3.944 -19.176,-9.928 0,-6.528 4.08,-9.248 18.224,-9.248 10.472,0 20.264,1.496 25.976,3.128 l 4.488,-18.768 c -7.48,-2.72 -18.904,-4.488 -30.328,-4.488 z" /><path
     id="path1996"
     style="font-style:normal;font-variant:normal;font-weight:normal;font-stretch:normal;font-size:136px;font-family:'Etelka Text';-inkscape-font-specification:'Etelka Text';fill:#1482A1;fill-opacity:1"
     d="m 628.51125,-19.176 c -3.944,1.632 -9.792,3.128 -15.776,3.128 -10.2,0 -15.368,-2.448 -15.368,-18.768 0,-17.136 5.168,-18.904 15.368,-18.904 5.712,0 11.832,1.36 15.776,2.856 l 4.352,-17.68 c -5.44,-1.904 -14.688,-2.992 -21.896,-2.992 -20.672,0 -34.68,8.024 -34.68,36.312 0,28.56 13.872,37.128 34.68,37.128 6.936,0 16.32,-1.224 21.896,-3.536 z" /><path
     id="path1998"
     style="font-style:normal;font-variant:normal;font-weight:normal;font-stretch:normal;font-size:136px;font-family:'Etelka Text';-inkscape-font-specification:'Etelka Text';fill:#1482A1;fill-opacity:1"
     d="m 674.2965,1.904 c 22.712,0 34,-8.568 34,-37.128 0,-28.424 -11.424,-36.312 -34,-36.312 -22.168,0 -33.728,7.888 -33.728,36.312 0,28.56 11.288,37.128 33.728,37.128 z m 0,-57.12 c 9.928,0 12.784,2.176 12.784,20.4 0,17.544 -2.856,20.4 -12.784,20.4 -9.792,0 -12.648,-2.856 -12.648,-20.4 0,-18.224 2.856,-20.4 12.648,-20.4 z" /><path
     id="path2000"
     style="font-style:normal;font-variant:normal;font-weight:normal;font-stretch:normal;font-size:136px;font-family:'Etelka Text';-inkscape-font-specification:'Etelka Text';fill:#1482A1;fill-opacity:1"
     d="m 766.07525,-18.088 c -3.672,0.952 -6.664,1.36 -10.064,1.36 -10.2,0 -12.376,-3.4 -12.376,-15.912 v -36.992 h -20.672 v 38.488 c 0,24.888 9.248,33.048 28.56,33.048 12.376,0 26.384,-2.992 35.224,-6.256 v -65.28 h -20.672 z" /><path
     id="path2002"
     style="font-style:normal;font-variant:normal;font-weight:normal;font-stretch:normal;font-size:136px;font-family:'Etelka Text';-inkscape-font-specification:'Etelka Text';fill:#1482A1;fill-opacity:1"
     d="m 850.8925,-51.544 v -17.952 h -21.76 V -88.4 l -20.944,8.568 v 10.336 h -11.288 v 17.952 h 11.288 v 28.152 c 0,20.672 8.84,25.296 23.936,25.296 7.48,0 15.64,-1.496 20.944,-3.4 l -3.4,-16.048 c -3.264,0.952 -6.936,1.768 -11.152,1.768 -6.528,0 -9.384,-2.72 -9.384,-8.432 v -27.336 z" /></g>

</svg>
