<?xml version="1.0" encoding="UTF-8" standalone="no"?>
<svg
   xmlns:dc="http://purl.org/dc/elements/1.1/"
   xmlns:cc="http://creativecommons.org/ns#"
   xmlns:rdf="http://www.w3.org/1999/02/22-rdf-syntax-ns#"
   xmlns:svg="http://www.w3.org/2000/svg"
   xmlns="http://www.w3.org/2000/svg"
   height="125.936"
   width="94.800003"
   xml:space="preserve"
   viewBox="0 0 94.8 125.936"
   y="0px"
   x="0px"
   id="Ebene_1"
   version="1.1"><metadata
   id="metadata21"><rdf:RDF><cc:Work
       rdf:about=""><dc:format>image/svg+xml</dc:format><dc:type
         rdf:resource="http://purl.org/dc/dcmitype/StillImage" /><dc:title></dc:title></cc:Work></rdf:RDF></metadata><defs
   id="defs19" />
<style
   id="style2"
   type="text/css">
	.st0{fill:#FE9915;}
	.st1{fill:#0082A1;}
	.st2{fill:none;}
	.st3{font-family:'EtelkaText-Bold';}
	.st4{font-size:136px;}
	.st5{font-size:131px;}
</style>
<path
   style="fill:#fe9915"
   id="path4"
   d="m 34.2,81.004407 c -5,-1.3 -9.9,-2.5 -14.9,-3.8 -7,-1.9 -13,-4.5 -17.7,-7.9 -0.1,0 -0.1,-0.1 -0.2,-0.1 -0.4,-0.3 -1.2,-0.5 -1.2,0.9 v 9.9 c 0,0.6 0.40000001,1 0.9,1 3.6,0 8.2,0 11,0 2.3,0 4.2,0.9 5.6,2 1.4,1.1 2.3,2.3 3.4,3.4 2.1,2.1 4,3.7 9.4,3.8 3.1,0 5.1,-0.6 6.1,-1.4 1,-0.8 1.5,-1.7 1.5,-3.7 0,-1 -0.3,-1.6 -0.8,-2.3 -0.6,-0.6 -1.6,-1.3 -3.1,-1.8 m 60.7,-71.6 C 94.9,6.8044064 92.8,4.7044064 90.2,4.7044064 H 5 c -2.6,0 -4.7,2.1 -4.7,4.7000006 v 13.3 c 0,1.7 1.7,2.9 4.1,1.2 7.3,-5.1 16.8,-7.5 28.2,-7.5 10.8,0 19.7,2.5 26.5,7.8 5.3,4.1 8.8,9.5 10.4,15.9 0.1,0.6 0.2,1.2 0.2,1.9 0,1.3 -0.3,2.8 -1.3,4.2 -1.1,1.5 -3,2.4 -5.2,2.4 H 48.1 c -2.4,0 -4.4,-0.7 -5.8,-1.8 -1.5,-1.1 -2.4,-2.3 -3.2,-3.2 -1.8,-1.9 -2.6,-3.1 -6.9,-3.2 -2.8,0 -4.5,0.6 -5.3,1.3 -0.8,0.7 -1.3,1.5 -1.3,3.4 0.1,1.7 0.6,2.8 2.9,4.1 1.7,0.7 5.8,2 11.6,3.4 11,2.6 19,5.8 24.3,10 5.7,4.6 8.7,11.2 8.7,18.9 0,5.7 -1.4,10.9 -4.2,15.4 -0.5,0.5 -0.3,2.299999 1.6,2.299999 h 19.8 c 2.6,0 4.7,-2.099999 4.7,-4.699999 v -85.1 z"
   class="st0" />
<path
   style="fill:#1482A1;fill-opacity:1"
   id="path6"
   d="m 59.6,99.504403 c 0.8,0 1.5,-0.499996 1.8,-0.799996 4.5,-4.7 6.7,-10.2 6.7,-17 0,-6.5 -2.2,-11.2 -6.8,-15 -4.2,-3.4 -11.7,-6.6 -22.3,-9.1 -6.2,-1.6 -10.3,-2.7 -12.6,-3.8 h -0.1 -0.1 c -3.5,-1.7 -5.8,-5 -5.7,-8.7 0,-2.9 1,-5.7 3.3,-7.5 2.2,-1.7 5.1,-2.4 8.5,-2.4 4.3,-0.1 7.3,1.5 9.2,3.3 1.9,1.8 2.9,3.4 4,4.1 0.7,0.5 1.4,0.8 2.9,0.8 h 15.1 c 1,0 1,-0.2 1.1,-0.3 0.1,-0.1 0.3,-0.6 0.3,-1.1 0,-0.3 0,-0.6 -0.1,-0.7 -1.4,-5.4 -4.1,-9.7 -8.6,-13.1 -5.7,-4.4 -13.4,-6.7 -23.5,-6.7 -11.5,0 -20.3,2.6 -26.6,7.6 -2,1.6 -3.8,3.3 -5.39999999,5.2 C 0.4,34.704407 0.2,35.104407 0.2,35.504407 v 24.8 c 0,0.3 0,1 0.50000001,1.4 0.39999999,0.4 0.59999999,0.6 0.99999999,1 4.2,4 10.7,7.2 19,9.5 5,1.2 10.1,2.5 15.1,3.8 h 0.1 0.1 c 2.2,0.8 4,1.8 5.3,3.4 1.3,1.5 2.1,3.6 2,5.6 0,3.1 -1.1,6.1 -3.6,7.9 -2.4,1.8 -5.5,2.5 -9.2,2.5 -5.1,0 -8.6,-1.5 -11.1,-3.5 -2.4,-1.9 -3.8,-4 -5,-4.9 -0.8,-0.6 -1.3,-0.9 -2.4,-0.9 -2.7,0 -8.3,0 -9.4,0 -1.89999999,0 -2.6,1.1 -2.6,2.6 0,0.7 0,5.8 0,5.8 0,2.6 2.3,4.799999 4.9,4.799999 h 54.7 z"
   class="st1" />



</svg>
