<?xml version="1.0" encoding="utf-8"?>
<!-- Generator: Adobe Illustrator 28.3.0, SVG Export Plug-In . SVG Version: 6.00 Build 0)  -->
<svg version="1.1" id="Layer_1" xmlns="http://www.w3.org/2000/svg" xmlns:xlink="http://www.w3.org/1999/xlink" x="0px" y="0px"
	 viewBox="0 0 109.2 102.2" style="enable-background:new 0 0 109.2 102.2;" xml:space="preserve">
<style type="text/css">
	.st0{fill:#FFFFFF;}
</style>
<g>
	<path class="st0" d="M30.1,65.2H13.4c2.2,7.6,6.3,14.4,12.4,20.4c9.6,9.6,21.1,14.4,34.6,14.4c2.7,0,5.3-0.2,7.9-0.6
		c10.2-1.5,19.1-6.1,26.7-13.8c6.1-6,10.2-12.8,12.4-20.4h-6.8h-9.9H30.1z"/>
	<g>
		<path class="st0" d="M108.6,42.4c0.3,1.9,0.5,3.9,0.6,5.9h-6.9H27.1h-5.2H11.5c0.1-2,0.3-4,0.6-5.9h8.7H108.6z"/>
		<path class="st0" d="M109.2,53.8c-0.1,2-0.3,4-0.6,5.9h-6.8H28.1h-6.9h-9.1c-0.3-1.9-0.5-3.9-0.6-5.9H109.2z"/>
	</g>
	<path class="st0" d="M107.4,37c-2.2-7.6-6.4-14.5-12.4-20.5C87.4,8.9,78.5,4.3,68.4,2.8c-2.6-0.4-5.2-0.6-7.9-0.6
		C47,2.2,35.5,7,25.8,16.5c-6,6.1-10.1,12.9-12.4,20.5L107.4,37L107.4,37z"/>
	<g>
		<path class="st0" d="M8.6,51.1C8.6,25.3,28,3.8,53.2,0c-0.6,0-1.3,0-1.9,0C23,0,0,22.9,0,51.1s23,51.1,51.3,51.1
			c0.6,0,1.3,0,1.9,0C28,98.4,8.6,76.9,8.6,51.1z"/>
	</g>
</g>
</svg>
